<svg width="32" height="32" viewBox="0 0 32 32" fill="none" xmlns="http://www.w3.org/2000/svg">
<g clip-path="url(#clip0_99_290)">
<circle cx="16" cy="16" r="16" fill="white"/>
<g clip-path="url(#clip1_99_290)">
<path d="M16 32C24.8366 32 32 24.8366 32 16C32 7.16344 24.8366 0 16 0C7.16344 0 0 7.16344 0 16C0 24.8366 7.16344 32 16 32Z" fill="#FFBB00"/>
<path d="M31.8861 14.0903L26.6846 8.88887L5.33325 22.3299L14.9694 31.966C15.3103 31.9877 15.6536 32 15.9999 32C24.8364 32 31.9999 24.8365 31.9999 16C31.9999 15.3536 31.9605 14.7166 31.8861 14.0903Z" fill="#E4A30B"/>
<path d="M19.5555 16.9966H15.9999H12.4444L5.33325 20.5522V22.3299H15.9999H26.6846V20.5522L19.5555 16.9966Z" fill="#FFC61B"/>
<path d="M12.4444 16.9966L5.33325 20.5522V22.3299H15.9999V16.9966H12.4444Z" fill="#707070"/>
<path d="M26.6847 20.5522L19.5556 16.9966H16V22.3299H26.6847V20.5522Z" fill="#595959"/>
<path d="M21.3334 7.11113C17.0955 5.38719 16.0001 8.88888 16.0001 8.88888C16.0001 8.88888 14.9046 5.38719 10.6667 7.11113C6.42887 8.83506 5.31543 8.88888 5.31543 8.88888V21.3333C5.31543 21.3333 6.42887 21.2794 10.6667 19.5556C14.9046 17.8317 16.0001 21.3333 16.0001 21.3333C16.0001 21.3333 17.0955 17.8316 21.3334 19.5556C25.5712 21.2795 26.6847 21.3333 26.6847 21.3333V8.88888C26.6847 8.88888 25.5713 8.835 21.3334 7.11113Z" fill="#FEE187"/>
<path d="M5.31543 21.3333C5.31543 21.3333 6.42887 21.2794 10.6667 19.5556C14.9046 17.8317 16.0001 21.3333 16.0001 21.3333V8.88888C16.0001 8.88888 14.9047 5.38719 10.6668 7.11113C6.42893 8.83506 5.31549 8.88888 5.31549 8.88888V21.3333H5.31543Z" fill="#DEDEDE"/>
<path d="M26.6847 21.3333C26.6847 21.3333 25.5713 21.2794 21.3334 19.5556C17.0955 17.8317 16 21.3333 16 21.3333V8.88888C16 8.88888 17.0954 5.38719 21.3333 7.11113C25.5712 8.83506 26.6846 8.88888 26.6846 8.88888L26.6847 21.3333Z" fill="#CCCCCC"/>
</g>
</g>
<defs>
<clipPath id="clip0_99_290">
<rect width="32" height="32" fill="white"/>
</clipPath>
<clipPath id="clip1_99_290">
<rect width="32" height="32" fill="white"/>
</clipPath>
</defs>
</svg>
