<svg width="32" height="30" fill="none" xmlns="http://www.w3.org/2000/svg"><path d="M16 0c-4.347 0-4.89.019-6.596.09C7.7.165 6.54.415 5.52.786a7.91 7.91 0 0 0-2.835 1.727C1.796 3.345 1.247 4.18.84 5.165.444 6.12.175 7.205.096 8.8.016 10.396 0 10.904 0 14.97c0 4.068.02 4.576.096 6.172.08 1.594.348 2.68.744 3.635.408.983.956 1.82 1.845 2.652a7.897 7.897 0 0 0 2.835 1.727c1.021.37 2.181.622 3.884.696 1.707.075 2.25.09 6.596.09 4.347 0 4.89-.019 6.596-.09 1.703-.075 2.864-.327 3.884-.696a7.939 7.939 0 0 0 2.835-1.727c.888-.832 1.438-1.665 1.845-2.652.395-.955.665-2.041.744-3.634.08-1.597.096-2.105.096-6.172 0-4.068-.02-4.575-.096-6.172-.08-1.594-.35-2.682-.744-3.635-.408-.984-.957-1.82-1.845-2.652A7.87 7.87 0 0 0 26.48.786C25.46.416 24.299.163 22.596.09 20.889.015 20.346 0 16 0Zm0 2.695c4.27 0 4.78.02 6.467.088 1.56.07 2.406.311 2.969.518.75.271 1.28.595 1.843 1.118a4.607 4.607 0 0 1 1.194 1.723c.219.527.48 1.319.551 2.779.076 1.579.093 2.053.093 6.05 0 3.998-.02 4.473-.098 6.052-.082 1.46-.342 2.251-.562 2.778a4.736 4.736 0 0 1-1.198 1.724c-.559.523-1.099.847-1.84 1.118-.56.205-1.42.45-2.98.515-1.699.071-2.199.088-6.479.088-4.281 0-4.781-.02-6.479-.093-1.561-.076-2.421-.32-2.981-.525-.759-.28-1.28-.598-1.839-1.122-.561-.522-.92-1.028-1.2-1.721-.22-.524-.478-1.329-.56-2.789-.06-1.572-.081-2.057-.081-6.043 0-3.988.021-4.474.081-6.065.082-1.46.34-2.263.56-2.787.28-.711.639-1.198 1.2-1.723.559-.523 1.08-.86 1.839-1.12.56-.208 1.401-.45 2.961-.526 1.7-.056 2.2-.075 6.479-.075l.06.038Zm0 4.589c-4.54 0-8.216 3.443-8.216 7.688 0 4.248 3.68 7.687 8.216 7.687 4.54 0 8.216-3.443 8.216-7.687 0-4.249-3.68-7.688-8.216-7.688Zm0 12.678c-2.947 0-5.333-2.233-5.333-4.99 0-2.758 2.386-4.991 5.333-4.991s5.333 2.233 5.333 4.99c0 2.758-2.386 4.991-5.333 4.991ZM26.461 6.98c0 .992-.861 1.797-1.92 1.797-1.06 0-1.92-.806-1.92-1.797 0-.99.862-1.795 1.92-1.795 1.058-.001 1.92.805 1.92 1.795Z" fill="#fff"/></svg>