<svg width="32" height="30" fill="none" xmlns="http://www.w3.org/2000/svg"><path d="M31.33 4.677c-.18-.905-.537-1.73-1.033-2.394C29.8 1.619 29.18 1.14 28.5.894 26.007 0 16 0 16 0S5.993 0 3.497.894c-.68.247-1.298.726-1.794 1.39C1.206 2.947.85 3.772.669 4.676 0 8.013 0 14.972 0 14.972s0 6.958.67 10.295c.18.904.537 1.73 1.033 2.393.497.664 1.116 1.143 1.796 1.389 2.494.894 12.501.894 12.501.894s10.007 0 12.503-.894c.68-.246 1.299-.725 1.795-1.389.497-.663.853-1.489 1.034-2.393C32 21.93 32 14.972 32 14.972s0-6.96-.67-10.295ZM12.728 21.29V8.654l8.364 6.318-8.364 6.318Z" fill="#fff"/></svg>