<svg width="136" height="136" viewBox="0 0 136 136" fill="none" xmlns="http://www.w3.org/2000/svg">
<g clip-path="url(#clip0_15_253)">
<path d="M68 136C105.555 136 136 105.555 136 68C136 30.4446 105.555 0 68 0C30.4446 0 0 30.4446 0 68C0 105.555 30.4446 136 68 136Z" fill="#FFBB00"/>
<path d="M135.516 59.8838L113.41 37.7777L22.6665 94.9022L63.62 135.856C65.0688 135.948 66.5281 136 67.9999 136C105.555 136 136 105.555 136 68C136 65.2529 135.832 62.5454 135.516 59.8838Z" fill="#E4A30B"/>
<path d="M83.1111 72.2357H67.9999H52.8888L22.6665 87.3468V94.9022H67.9999H113.41V87.3468L83.1111 72.2357Z" fill="#FFC61B"/>
<path d="M52.8888 72.2357L22.6665 87.3468V94.9022H67.9999V72.2357H52.8888Z" fill="#707070"/>
<path d="M113.41 87.3468L83.1111 72.2357H68V94.9022H113.41V87.3468Z" fill="#595959"/>
<path d="M90.6666 30.2223C72.6556 22.8955 68 37.7777 68 37.7777C68 37.7777 63.3444 22.8955 45.3334 30.2223C27.3224 37.549 22.5903 37.7777 22.5903 37.7777V90.6666C22.5903 90.6666 27.3224 90.4376 45.3334 83.1111C63.3444 75.7847 68 90.6666 68 90.6666C68 90.6666 72.6556 75.7844 90.6666 83.1111C108.678 90.4379 113.41 90.6666 113.41 90.6666V37.7777C113.41 37.7777 108.678 37.5487 90.6666 30.2223Z" fill="#FEE187"/>
<path d="M22.5901 90.6666C22.5901 90.6666 27.3222 90.4376 45.3332 83.1111C63.3441 75.7847 68 90.6666 68 90.6666V37.7777C68 37.7777 63.3444 22.8955 45.3334 30.2223C27.3225 37.549 22.5904 37.7777 22.5904 37.7777V90.6666H22.5901Z" fill="#DEDEDE"/>
<path d="M113.41 90.6666C113.41 90.6666 108.678 90.4376 90.6668 83.1111C72.6559 75.7847 68 90.6666 68 90.6666V37.7777C68 37.7777 72.6556 22.8955 90.6666 30.2223C108.678 37.549 113.41 37.7777 113.41 37.7777L113.41 90.6666Z" fill="#CCCCCC"/>
</g>
<path d="M31.688 65.408C31.688 65.2373 31.7307 65.0987 31.816 64.992C31.912 64.8747 32.056 64.8213 32.248 64.832H32.472C32.6213 63.3493 32.696 61.7013 32.696 59.888C32.696 58.4267 32.6853 57.2693 32.664 56.416L32.488 56.464C32.36 56.4853 32.248 56.4587 32.152 56.384C32.0667 56.3093 32.024 56.192 32.024 56.032C32.024 55.8613 32.0773 55.7227 32.184 55.616C32.3013 55.4987 32.4987 55.3813 32.776 55.264C33.6827 54.88 34.6747 54.688 35.752 54.688C36.552 54.688 37.2773 54.8107 37.928 55.056C38.5787 55.3013 39.0907 55.6587 39.464 56.128C39.848 56.5867 40.04 57.136 40.04 57.776C40.04 58.4373 39.768 59.0027 39.224 59.472C38.6907 59.9413 37.9973 60.2347 37.144 60.352C37.9867 60.4907 38.6533 60.816 39.144 61.328C39.6347 61.8293 39.88 62.3947 39.88 63.024C39.88 63.696 39.6827 64.2667 39.288 64.736C38.8933 65.1947 38.3653 65.536 37.704 65.76C37.0427 65.9733 36.3227 66.064 35.544 66.032L34.424 65.984L33.592 65.968C33.5173 66.2347 33.3307 66.368 33.032 66.368C32.68 66.368 32.4667 66.2187 32.392 65.92L32.184 65.904C31.8533 65.8827 31.688 65.7173 31.688 65.408ZM33.672 64.896C34.4827 64.9173 35.0853 64.928 35.48 64.928C36.536 64.928 37.3307 64.7787 37.864 64.48C38.3973 64.1813 38.664 63.696 38.664 63.024C38.664 62.2773 38.3547 61.7493 37.736 61.44C37.1173 61.12 36.248 60.9333 35.128 60.88C34.8933 60.8693 34.7067 60.832 34.568 60.768C34.44 60.6933 34.376 60.544 34.376 60.32C34.376 60.096 34.44 59.9467 34.568 59.872C34.7067 59.7973 34.8827 59.7547 35.096 59.744C35.8 59.7013 36.4027 59.6373 36.904 59.552C37.4053 59.4667 37.848 59.2853 38.232 59.008C38.616 58.7307 38.808 58.32 38.808 57.776C38.808 57.1147 38.5307 56.6133 37.976 56.272C37.432 55.9307 36.6907 55.76 35.752 55.76C35.4747 55.76 35.16 55.7813 34.808 55.824C34.456 55.8667 34.152 55.9253 33.896 56C33.9173 56.992 33.928 58.2827 33.928 59.872C33.928 61.5573 33.8427 63.232 33.672 64.896ZM45.7055 66.016C44.5002 66.016 43.4975 65.696 42.6975 65.056C41.9082 64.416 41.5135 63.4133 41.5135 62.048C41.5135 61.1947 41.6735 60.448 41.9935 59.808C42.3242 59.1573 42.7988 58.6507 43.4175 58.288C44.0362 57.9253 44.7668 57.744 45.6095 57.744C46.4202 57.744 47.1455 57.9147 47.7855 58.256C48.4362 58.5867 48.9428 59.0773 49.3055 59.728C49.6788 60.368 49.8655 61.136 49.8655 62.032C49.8655 63.3333 49.4815 64.3253 48.7135 65.008C47.9562 65.68 46.9535 66.016 45.7055 66.016ZM45.6735 65.008C46.5268 65.008 47.2308 64.7573 47.7855 64.256C48.3508 63.744 48.6335 62.9973 48.6335 62.016C48.6335 61.376 48.5055 60.8107 48.2495 60.32C48.0042 59.8187 47.6522 59.4347 47.1935 59.168C46.7455 58.8907 46.2282 58.752 45.6415 58.752C44.7668 58.752 44.0628 59.0507 43.5295 59.648C43.0068 60.2453 42.7455 61.0347 42.7455 62.016C42.7455 63.0507 43.0282 63.808 43.5935 64.288C44.1588 64.768 44.8522 65.008 45.6735 65.008ZM55.1899 66.016C53.9845 66.016 52.9819 65.696 52.1819 65.056C51.3925 64.416 50.9979 63.4133 50.9979 62.048C50.9979 61.1947 51.1579 60.448 51.4779 59.808C51.8085 59.1573 52.2832 58.6507 52.9019 58.288C53.5205 57.9253 54.2512 57.744 55.0939 57.744C55.9045 57.744 56.6299 57.9147 57.2699 58.256C57.9205 58.5867 58.4272 59.0773 58.7899 59.728C59.1632 60.368 59.3499 61.136 59.3499 62.032C59.3499 63.3333 58.9659 64.3253 58.1979 65.008C57.4405 65.68 56.4379 66.016 55.1899 66.016ZM55.1579 65.008C56.0112 65.008 56.7152 64.7573 57.2699 64.256C57.8352 63.744 58.1179 62.9973 58.1179 62.016C58.1179 61.376 57.9899 60.8107 57.7339 60.32C57.4885 59.8187 57.1365 59.4347 56.6779 59.168C56.2299 58.8907 55.7125 58.752 55.1259 58.752C54.2512 58.752 53.5472 59.0507 53.0139 59.648C52.4912 60.2453 52.2299 61.0347 52.2299 62.016C52.2299 63.0507 52.5125 63.808 53.0779 64.288C53.6432 64.768 54.3365 65.008 55.1579 65.008ZM62.0182 66.08C61.8476 66.08 61.7036 66.0373 61.5863 65.952C61.4689 65.8667 61.4103 65.76 61.4103 65.632V54.32C61.4103 54.1493 61.4636 54.016 61.5703 53.92C61.6769 53.824 61.8263 53.776 62.0182 53.776C62.2103 53.776 62.3596 53.824 62.4663 53.92C62.5836 54.0053 62.6423 54.1387 62.6423 54.32L62.6103 59.984L63.7783 59.328C65.3889 58.4213 66.4556 57.808 66.9783 57.488C67.1383 57.392 67.2609 57.344 67.3463 57.344C67.4956 57.344 67.6236 57.424 67.7303 57.584C67.8476 57.7333 67.9062 57.8987 67.9062 58.08C67.9062 58.1973 67.7889 58.3253 67.5543 58.464L62.6263 61.392L67.6183 64.944C67.7249 65.0293 67.7783 65.1467 67.7783 65.296C67.7783 65.456 67.7089 65.6053 67.5703 65.744C67.4423 65.872 67.3089 65.936 67.1703 65.936C67.0423 65.936 66.8823 65.8773 66.6903 65.76L65.0423 64.608C64.2636 64.032 63.4583 63.4613 62.6263 62.896L62.6103 65.616C62.6103 65.7547 62.5516 65.8667 62.4343 65.952C62.3276 66.0373 62.1889 66.08 62.0182 66.08Z" fill="#332200"/>
<path d="M78.8273 65.984C78.4539 65.984 78.1659 65.888 77.9633 65.696C77.7606 65.504 77.6593 65.2427 77.6593 64.912L77.6113 60.688C77.4619 60.688 77.1793 60.4853 76.7633 60.08C76.3579 59.664 76.0379 59.28 75.8033 58.928C75.6006 58.6293 75.3659 58.2187 75.0993 57.696C74.8326 57.1733 74.5926 56.64 74.3793 56.096C74.3473 56.0107 74.3313 55.9253 74.3313 55.84C74.3313 55.5733 74.4593 55.328 74.7153 55.104C74.9819 54.88 75.2966 54.768 75.6593 54.768C75.9153 54.768 76.1286 54.8373 76.2993 54.976C76.4699 55.104 76.6246 55.312 76.7633 55.6C77.2646 56.6347 77.6646 57.408 77.9633 57.92C78.3899 58.624 78.6779 58.976 78.8273 58.976C78.9659 58.976 79.2273 58.624 79.6113 57.92L80.8593 55.536C80.9979 55.28 81.1313 55.0933 81.2593 54.976C81.3979 54.8587 81.6113 54.8 81.8993 54.8C82.2939 54.8 82.6193 54.8907 82.8753 55.072C83.1313 55.2427 83.2593 55.4827 83.2593 55.792C83.2593 55.8987 83.2219 56.0533 83.1473 56.256C83.0513 56.5013 82.8379 56.9493 82.5073 57.6C82.1873 58.24 81.9313 58.704 81.7393 58.992C81.4833 59.3867 81.1526 59.7707 80.7473 60.144C80.3526 60.5067 80.0806 60.688 79.9313 60.688L79.9793 64.864C79.9793 65.216 79.8779 65.4933 79.6753 65.696C79.4833 65.888 79.2006 65.984 78.8273 65.984ZM88.9116 66.048C87.557 66.048 86.4796 65.696 85.6796 64.992C84.8903 64.2773 84.4956 63.28 84.4956 62C84.4956 61.168 84.6716 60.4267 85.0236 59.776C85.3756 59.1253 85.8716 58.6187 86.5116 58.256C87.1623 57.8933 87.925 57.712 88.7996 57.712C89.685 57.712 90.4636 57.8987 91.1356 58.272C91.8076 58.6453 92.325 59.168 92.6876 59.84C93.061 60.5013 93.2476 61.2587 93.2476 62.112C93.2476 63.36 92.8583 64.3307 92.0796 65.024C91.301 65.7067 90.245 66.048 88.9116 66.048ZM88.8796 64.272C89.5303 64.272 90.0316 64.0907 90.3836 63.728C90.7463 63.3547 90.9276 62.8053 90.9276 62.08C90.9276 61.3653 90.7516 60.7573 90.3996 60.256C90.0583 59.744 89.5516 59.488 88.8796 59.488C88.2503 59.488 87.749 59.7173 87.3756 60.176C87.0023 60.6347 86.8156 61.248 86.8156 62.016C86.8156 62.7627 86.997 63.328 87.3596 63.712C87.7223 64.0853 88.229 64.272 88.8796 64.272ZM101.558 63.472C101.558 63.8453 101.59 64.1387 101.654 64.352C101.718 64.5653 101.788 64.736 101.862 64.864C101.937 64.992 101.974 65.0667 101.974 65.088C101.974 65.3547 101.873 65.5787 101.67 65.76C101.478 65.9307 101.217 66.016 100.886 66.016C100.684 66.016 100.46 65.9093 100.214 65.696C99.9797 65.472 99.825 65.2267 99.7504 64.96C99.377 65.6747 98.6784 66.032 97.6544 66.032C96.7157 66.032 95.985 65.7013 95.4624 65.04C94.9504 64.3787 94.6944 63.536 94.6944 62.512V58.736C94.6944 58.4907 94.801 58.2933 95.0144 58.144C95.2384 57.984 95.5104 57.904 95.8304 57.904C96.1504 57.904 96.4224 57.984 96.6464 58.144C96.881 58.2933 96.9984 58.4907 96.9984 58.736V62.48C96.9984 62.9387 97.0784 63.3493 97.2384 63.712C97.3984 64.0747 97.6437 64.256 97.9744 64.256C98.3904 64.256 98.6944 64.0693 98.8864 63.696C99.089 63.3227 99.1904 62.6667 99.1904 61.728V58.768C99.1904 58.48 99.2917 58.2507 99.4944 58.08C99.7077 57.9093 99.985 57.824 100.326 57.824C100.678 57.824 100.961 57.9093 101.174 58.08C101.398 58.2507 101.51 58.48 101.51 58.768L101.558 63.472Z" fill="#FFBB00"/>
<defs>
<clipPath id="clip0_15_253">
<rect width="136" height="136" fill="white"/>
</clipPath>
</defs>
</svg>
